<svg width="1280" height="720" xmlns="http://www.w3.org/2000/svg" xmlns:xlink="http://www.w3.org/1999/xlink" overflow="hidden"><defs><filter id="fx0" x="-10%" y="-10%" width="120%" height="120%" filterUnits="userSpaceOnUse" primitiveUnits="userSpaceOnUse"><feComponentTransfer color-interpolation-filters="sRGB"><feFuncR type="discrete" tableValues="0 0"/><feFuncG type="discrete" tableValues="0 0"/><feFuncB type="discrete" tableValues="0 0"/><feFuncA type="linear" slope="0.4" intercept="0"/></feComponentTransfer><feGaussianBlur stdDeviation="1.77778 1.77778"/></filter><filter id="fx1" x="-10%" y="-10%" width="120%" height="120%" filterUnits="userSpaceOnUse" primitiveUnits="userSpaceOnUse"><feComponentTransfer color-interpolation-filters="sRGB"><feFuncR type="discrete" tableValues="0 0"/><feFuncG type="discrete" tableValues="0 0"/><feFuncB type="discrete" tableValues="0 0"/><feFuncA type="linear" slope="0.4" intercept="0"/></feComponentTransfer><feGaussianBlur stdDeviation="1.77778 1.77778"/></filter><filter id="fx2" x="-10%" y="-10%" width="120%" height="120%" filterUnits="userSpaceOnUse" primitiveUnits="userSpaceOnUse"><feComponentTransfer color-interpolation-filters="sRGB"><feFuncR type="discrete" tableValues="0 0"/><feFuncG type="discrete" tableValues="0 0"/><feFuncB type="discrete" tableValues="0 0"/><feFuncA type="linear" slope="0.4" intercept="0"/></feComponentTransfer><feGaussianBlur stdDeviation="1.77778 1.77778"/></filter><filter id="fx3" x="-10%" y="-10%" width="120%" height="120%" filterUnits="userSpaceOnUse" primitiveUnits="userSpaceOnUse"><feComponentTransfer color-interpolation-filters="sRGB"><feFuncR type="discrete" tableValues="0 0"/><feFuncG type="discrete" tableValues="0 0"/><feFuncB type="discrete" tableValues="0 0"/><feFuncA type="linear" slope="0.4" intercept="0"/></feComponentTransfer><feGaussianBlur stdDeviation="1.77778 1.77778"/></filter><filter id="fx4" x="-10%" y="-10%" width="120%" height="120%" filterUnits="userSpaceOnUse" primitiveUnits="userSpaceOnUse"><feComponentTransfer color-interpolation-filters="sRGB"><feFuncR type="discrete" tableValues="0 0"/><feFuncG type="discrete" tableValues="0 0"/><feFuncB type="discrete" tableValues="0 0"/><feFuncA type="linear" slope="0.4" intercept="0"/></feComponentTransfer><feGaussianBlur stdDeviation="1.77778 1.77778"/></filter><filter id="fx5" x="-10%" y="-10%" width="120%" height="120%" filterUnits="userSpaceOnUse" primitiveUnits="userSpaceOnUse"><feComponentTransfer color-interpolation-filters="sRGB"><feFuncR type="discrete" tableValues="0 0"/><feFuncG type="discrete" tableValues="0 0"/><feFuncB type="discrete" tableValues="0 0"/><feFuncA type="linear" slope="0.4" intercept="0"/></feComponentTransfer><feGaussianBlur stdDeviation="1.77778 1.77778"/></filter><filter id="fx6" x="-10%" y="-10%" width="120%" height="120%" filterUnits="userSpaceOnUse" primitiveUnits="userSpaceOnUse"><feComponentTransfer color-interpolation-filters="sRGB"><feFuncR type="discrete" tableValues="0 0"/><feFuncG type="discrete" tableValues="0 0"/><feFuncB type="discrete" tableValues="0 0"/><feFuncA type="linear" slope="0.4" intercept="0"/></feComponentTransfer><feGaussianBlur stdDeviation="1.77778 1.77778"/></filter><filter id="fx7" x="-10%" y="-10%" width="120%" height="120%" filterUnits="userSpaceOnUse" primitiveUnits="userSpaceOnUse"><feComponentTransfer color-interpolation-filters="sRGB"><feFuncR type="discrete" tableValues="0 0"/><feFuncG type="discrete" tableValues="0 0"/><feFuncB type="discrete" tableValues="0 0"/><feFuncA type="linear" slope="0.4" intercept="0"/></feComponentTransfer><feGaussianBlur stdDeviation="1.77778 1.77778"/></filter><filter id="fx8" x="-10%" y="-10%" width="120%" height="120%" filterUnits="userSpaceOnUse" primitiveUnits="userSpaceOnUse"><feComponentTransfer color-interpolation-filters="sRGB"><feFuncR type="discrete" tableValues="0 0"/><feFuncG type="discrete" tableValues="0 0"/><feFuncB type="discrete" tableValues="0 0"/><feFuncA type="linear" slope="0.4" intercept="0"/></feComponentTransfer><feGaussianBlur stdDeviation="1.77778 1.77778"/></filter><filter id="fx9" x="-10%" y="-10%" width="120%" height="120%" filterUnits="userSpaceOnUse" primitiveUnits="userSpaceOnUse"><feComponentTransfer color-interpolation-filters="sRGB"><feFuncR type="discrete" tableValues="0 0"/><feFuncG type="discrete" tableValues="0 0"/><feFuncB type="discrete" tableValues="0 0"/><feFuncA type="linear" slope="0.4" intercept="0"/></feComponentTransfer><feGaussianBlur stdDeviation="1.77778 1.77778"/></filter><filter id="fx10" x="-10%" y="-10%" width="120%" height="120%" filterUnits="userSpaceOnUse" primitiveUnits="userSpaceOnUse"><feComponentTransfer color-interpolation-filters="sRGB"><feFuncR type="discrete" tableValues="0 0"/><feFuncG type="discrete" tableValues="0 0"/><feFuncB type="discrete" tableValues="0 0"/><feFuncA type="linear" slope="0.4" intercept="0"/></feComponentTransfer><feGaussianBlur stdDeviation="1.77778 1.77778"/></filter><filter id="fx11" x="-10%" y="-10%" width="120%" height="120%" filterUnits="userSpaceOnUse" primitiveUnits="userSpaceOnUse"><feComponentTransfer color-interpolation-filters="sRGB"><feFuncR type="discrete" tableValues="0 0"/><feFuncG type="discrete" tableValues="0 0"/><feFuncB type="discrete" tableValues="0 0"/><feFuncA type="linear" slope="0.4" intercept="0"/></feComponentTransfer><feGaussianBlur stdDeviation="1.77778 1.77778"/></filter><filter id="fx12" x="-10%" y="-10%" width="120%" height="120%" filterUnits="userSpaceOnUse" primitiveUnits="userSpaceOnUse"><feComponentTransfer color-interpolation-filters="sRGB"><feFuncR type="discrete" tableValues="0 0"/><feFuncG type="discrete" tableValues="0 0"/><feFuncB type="discrete" tableValues="0 0"/><feFuncA type="linear" slope="0.4" intercept="0"/></feComponentTransfer><feGaussianBlur stdDeviation="1.77778 1.77778"/></filter><filter id="fx13" x="-10%" y="-10%" width="120%" height="120%" filterUnits="userSpaceOnUse" primitiveUnits="userSpaceOnUse"><feComponentTransfer color-interpolation-filters="sRGB"><feFuncR type="discrete" tableValues="0 0"/><feFuncG type="discrete" tableValues="0 0"/><feFuncB type="discrete" tableValues="0 0"/><feFuncA type="linear" slope="0.4" intercept="0"/></feComponentTransfer><feGaussianBlur stdDeviation="1.77778 1.77778"/></filter><filter id="fx14" x="-10%" y="-10%" width="120%" height="120%" filterUnits="userSpaceOnUse" primitiveUnits="userSpaceOnUse"><feComponentTransfer color-interpolation-filters="sRGB"><feFuncR type="discrete" tableValues="0 0"/><feFuncG type="discrete" tableValues="0 0"/><feFuncB type="discrete" tableValues="0 0"/><feFuncA type="linear" slope="0.4" intercept="0"/></feComponentTransfer><feGaussianBlur stdDeviation="1.77778 1.77778"/></filter><filter id="fx15" x="-10%" y="-10%" width="120%" height="120%" filterUnits="userSpaceOnUse" primitiveUnits="userSpaceOnUse"><feComponentTransfer color-interpolation-filters="sRGB"><feFuncR type="discrete" tableValues="0 0"/><feFuncG type="discrete" tableValues="0 0"/><feFuncB type="discrete" tableValues="0 0"/><feFuncA type="linear" slope="0.4" intercept="0"/></feComponentTransfer><feGaussianBlur stdDeviation="1.77778 1.77778"/></filter><clipPath id="clip16"><rect x="0" y="0" width="1280" height="720"/></clipPath><clipPath id="clip17"><path d="M11.5001 132.5 11.5001 393.5 545.5 393.5 545.5 132.5ZM1.90735e-05 1.07288e-05 1280 1.07288e-05 1280 720 1.90735e-05 720Z" fill-rule="evenodd" clip-rule="evenodd"/></clipPath><clipPath id="clip18"><path d="M11.5001 132.5 11.5001 393.5 545.5 393.5 545.5 132.5ZM1.90735e-05 1.07288e-05 1280 1.07288e-05 1280 720 1.90735e-05 720Z" fill-rule="evenodd" clip-rule="evenodd"/></clipPath><clipPath id="clip19"><path d="M564.5 132.5 564.5 411.5 923.5 411.5 923.5 132.5ZM1.90735e-05 1.07288e-05 1280 1.07288e-05 1280 720 1.90735e-05 720Z" fill-rule="evenodd" clip-rule="evenodd"/></clipPath><clipPath id="clip20"><path d="M564.5 132.5 564.5 411.5 923.5 411.5 923.5 132.5ZM1.90735e-05 1.07288e-05 1280 1.07288e-05 1280 720 1.90735e-05 720Z" fill-rule="evenodd" clip-rule="evenodd"/></clipPath><clipPath id="clip21"><path d="M942.5 132.5 942.5 411.5 1269.5 411.5 1269.5 132.5ZM1.90735e-05 1.07288e-05 1280 1.07288e-05 1280 720 1.90735e-05 720Z" fill-rule="evenodd" clip-rule="evenodd"/></clipPath><clipPath id="clip22"><path d="M11.5001 448.5 11.5001 709.5 415.5 709.5 415.5 448.5ZM1.90735e-05 1.07288e-05 1280 1.07288e-05 1280 720 1.90735e-05 720Z" fill-rule="evenodd" clip-rule="evenodd"/></clipPath><clipPath id="clip23"><path d="M11.5001 448.5 11.5001 709.5 415.5 709.5 415.5 448.5ZM1.90735e-05 1.07288e-05 1280 1.07288e-05 1280 720 1.90735e-05 720Z" fill-rule="evenodd" clip-rule="evenodd"/></clipPath><clipPath id="clip24"><path d="M429.5 430.5 429.5 709.5 833.5 709.5 833.5 430.5ZM1.90735e-05 1.07288e-05 1280 1.07288e-05 1280 720 1.90735e-05 720Z" fill-rule="evenodd" clip-rule="evenodd"/></clipPath><clipPath id="clip25"><path d="M429.5 430.5 429.5 709.5 833.5 709.5 833.5 430.5ZM1.90735e-05 1.07288e-05 1280 1.07288e-05 1280 720 1.90735e-05 720Z" fill-rule="evenodd" clip-rule="evenodd"/></clipPath><clipPath id="clip26"><path d="M846.5 430.5 846.5 709.5 1269.5 709.5 1269.5 430.5ZM1.90735e-05 1.07288e-05 1280 1.07288e-05 1280 720 1.90735e-05 720Z" fill-rule="evenodd" clip-rule="evenodd"/></clipPath><clipPath id="clip27"><path d="M11.5001 132.5 11.5001 411.5 545.5 411.5 545.5 132.5ZM1.90735e-05 1.07288e-05 1280 1.07288e-05 1280 720 1.90735e-05 720Z" fill-rule="evenodd" clip-rule="evenodd"/></clipPath><clipPath id="clip28"><path d="M11.5001 132.5 11.5001 411.5 545.5 411.5 545.5 132.5ZM1.90735e-05 1.07288e-05 1280 1.07288e-05 1280 720 1.90735e-05 720Z" fill-rule="evenodd" clip-rule="evenodd"/></clipPath><clipPath id="clip29"><path d="M11.5001 430.5 11.5001 709.5 415.5 709.5 415.5 430.5ZM1.90735e-05 1.07288e-05 1280 1.07288e-05 1280 720 1.90735e-05 720Z" fill-rule="evenodd" clip-rule="evenodd"/></clipPath><clipPath id="clip30"><path d="M11.5001 430.5 11.5001 709.5 415.5 709.5 415.5 430.5ZM1.90735e-05 1.07288e-05 1280 1.07288e-05 1280 720 1.90735e-05 720Z" fill-rule="evenodd" clip-rule="evenodd"/></clipPath><clipPath id="clip31"><path d="M942.5 130.5 942.5 409.5 1269.5 409.5 1269.5 130.5ZM1.90735e-05 1.07288e-05 1280 1.07288e-05 1280 720 1.90735e-05 720Z" fill-rule="evenodd" clip-rule="evenodd"/></clipPath><clipPath id="clip32"><path d="M846.5 430.5 846.5 709.5 1269.5 709.5 1269.5 430.5ZM1.90735e-05 1.07288e-05 1280 1.07288e-05 1280 720 1.90735e-05 720Z" fill-rule="evenodd" clip-rule="evenodd"/></clipPath></defs><g clip-path="url(#clip16)"><rect x="0" y="0" width="1280" height="720" fill="#FFFFFF"/><rect x="0.500053" y="0.500053" width="1280" height="108" stroke="#172C51" stroke-width="1.33333" stroke-miterlimit="8" fill="#DBE4C9"/><g clip-path="url(#clip17)"><g filter="url(#fx0)" transform="translate(1 122)"><g><rect x="7.67163" y="7.67163" width="534" height="261" stroke="#000000" stroke-miterlimit="8" fill="#DBE4C9"/></g></g></g><rect x="11.5001" y="132.5" width="534" height="261" stroke="#000000" stroke-width="1.33333" stroke-miterlimit="8" fill="#DBE4C9"/><g clip-path="url(#clip18)"><g filter="url(#fx1)" transform="translate(7 128)"><g><rect x="7.32848" y="7.32848" width="534" height="261" stroke="#000000" stroke-miterlimit="8" fill="#DBE4C9"/></g></g></g><rect x="11.5001" y="132.5" width="534" height="261" stroke="#000000" stroke-width="1.33333" stroke-miterlimit="8" fill="#DBE4C9"/><g clip-path="url(#clip19)"><g filter="url(#fx2)" transform="translate(554 122)"><g><rect x="7.67163" y="7.67163" width="359" height="279" stroke="#000000" stroke-miterlimit="8" fill="#DBE4C9"/></g></g></g><rect x="564.5" y="132.5" width="359" height="279" stroke="#000000" stroke-width="1.33333" stroke-miterlimit="8" fill="#DBE4C9"/><g clip-path="url(#clip20)"><g filter="url(#fx3)" transform="translate(560 128)"><g><rect x="7.32849" y="7.32848" width="359" height="279" stroke="#000000" stroke-miterlimit="8" fill="#DBE4C9"/></g></g></g><rect x="564.5" y="132.5" width="359" height="279" stroke="#000000" stroke-width="1.33333" stroke-miterlimit="8" fill="#DBE4C9"/><g clip-path="url(#clip21)"><g filter="url(#fx4)" transform="translate(938 128)"><g><rect x="7.32849" y="7.32848" width="327" height="279" stroke="#000000" stroke-miterlimit="8" fill="#DBE4C9"/></g></g></g><rect x="942.5" y="132.5" width="327" height="279" stroke="#000000" stroke-width="1.33333" stroke-miterlimit="8" fill="#DBE4C9"/><g clip-path="url(#clip22)"><g filter="url(#fx5)" transform="translate(1 438)"><g><rect x="7.67163" y="7.67163" width="404" height="261" stroke="#000000" stroke-miterlimit="8" fill="#DBE4C9"/></g></g></g><rect x="11.5001" y="448.5" width="404" height="261" stroke="#000000" stroke-width="1.33333" stroke-miterlimit="8" fill="#DBE4C9"/><g clip-path="url(#clip23)"><g filter="url(#fx6)" transform="translate(7 444)"><g><rect x="7.32848" y="7.32849" width="404" height="261" stroke="#000000" stroke-miterlimit="8" fill="#DBE4C9"/></g></g></g><rect x="11.5001" y="448.5" width="404" height="261" stroke="#000000" stroke-width="1.33333" stroke-miterlimit="8" fill="#DBE4C9"/><g clip-path="url(#clip24)"><g filter="url(#fx7)" transform="translate(419 420)"><g><rect x="7.67163" y="7.67163" width="404" height="279" stroke="#000000" stroke-miterlimit="8" fill="#DBE4C9"/></g></g></g><rect x="429.5" y="430.5" width="404" height="279" stroke="#000000" stroke-width="1.33333" stroke-miterlimit="8" fill="#DBE4C9"/><g clip-path="url(#clip25)"><g filter="url(#fx8)" transform="translate(425 426)"><g><rect x="7.32849" y="7.32849" width="404" height="279" stroke="#000000" stroke-miterlimit="8" fill="#DBE4C9"/></g></g></g><rect x="429.5" y="430.5" width="404" height="279" stroke="#000000" stroke-width="1.33333" stroke-miterlimit="8" fill="#DBE4C9"/><g clip-path="url(#clip26)"><g filter="url(#fx9)" transform="translate(836 420)"><g><rect x="7.67163" y="7.67163" width="423" height="279" stroke="#000000" stroke-miterlimit="8" fill="#DBE4C9"/></g></g></g><rect x="846.5" y="430.5" width="423" height="279" stroke="#000000" stroke-width="1.33333" stroke-miterlimit="8" fill="#DBE4C9"/><g clip-path="url(#clip27)"><g filter="url(#fx10)" transform="translate(1 122)"><g><rect x="7.67163" y="7.67163" width="534" height="279" stroke="#000000" stroke-miterlimit="8" fill="#DBE4C9"/></g></g></g><rect x="11.5001" y="132.5" width="534" height="279" stroke="#000000" stroke-width="1.33333" stroke-miterlimit="8" fill="#DBE4C9"/><g clip-path="url(#clip28)"><g filter="url(#fx11)" transform="translate(7 128)"><g><rect x="7.32848" y="7.32848" width="534" height="279" stroke="#000000" stroke-miterlimit="8" fill="#DBE4C9"/></g></g></g><rect x="11.5001" y="132.5" width="534" height="279" stroke="#000000" stroke-width="1.33333" stroke-miterlimit="8" fill="#DBE4C9"/><g clip-path="url(#clip29)"><g filter="url(#fx12)" transform="translate(1 420)"><g><rect x="7.67163" y="7.67163" width="404" height="279" stroke="#000000" stroke-miterlimit="8" fill="#DBE4C9"/></g></g></g><rect x="11.5001" y="430.5" width="404" height="279" stroke="#000000" stroke-width="1.33333" stroke-miterlimit="8" fill="#DBE4C9"/><g clip-path="url(#clip30)"><g filter="url(#fx13)" transform="translate(7 426)"><g><rect x="7.32848" y="7.32849" width="404" height="279" stroke="#000000" stroke-miterlimit="8" fill="#DBE4C9"/></g></g></g><rect x="11.5001" y="430.5" width="404" height="279" stroke="#000000" stroke-width="1.33333" stroke-miterlimit="8" fill="#DBE4C9"/><g clip-path="url(#clip31)"><g filter="url(#fx14)" transform="translate(932 120)"><g><rect x="7.67163" y="7.67162" width="327" height="279" stroke="#000000" stroke-miterlimit="8" fill="#DBE4C9"/></g></g></g><rect x="942.5" y="130.5" width="327" height="279" stroke="#000000" stroke-width="1.33333" stroke-miterlimit="8" fill="#DBE4C9"/><g clip-path="url(#clip32)"><g filter="url(#fx15)" transform="translate(842 426)"><g><rect x="7.32849" y="7.32849" width="423" height="279" stroke="#000000" stroke-miterlimit="8" fill="#DBE4C9"/></g></g></g><rect x="846.5" y="430.5" width="423" height="279" stroke="#000000" stroke-width="1.33333" stroke-miterlimit="8" fill="#DBE4C9"/></g></svg>